/* XPM */
static char *result[] = {
/* columns rows colors chars-per-pixel */
"40 40 77 1 ",
"  c #28B764",
". c #28B865",
"X c #29B865",
"o c #28B965",
"O c #29B965",
"+ c #29B966",
"@ c #29BA66",
"# c #29BB66",
"$ c #29BB67",
"% c #29BC67",
"& c #29BD67",
"* c #29BD68",
"= c #29BE68",
"- c #29BF68",
"; c #2ABE68",
": c #2ABF69",
"> c #2AC069",
", c #2AC169",
"< c #2AC06A",
"1 c #2AC16A",
"2 c #2AC26A",
"3 c #2BC26A",
"4 c #2AC36A",
"5 c #2BC36A",
"6 c #2AC26B",
"7 c #2BC26B",
"8 c #2AC36B",
"9 c #2BC36B",
"0 c #2BC46B",
"q c #2BC36C",
"w c #2BC46C",
"e c #2BC56C",
"r c #2BC56D",
"t c #2BC66C",
"y c #2BC66D",
"u c #2BC76D",
"i c #2BC76E",
"p c #2CC46C",
"a c #2CC66C",
"s c #2CC66D",
"d c #2CC76D",
"f c #2CC76E",
"g c #2BC86E",
"h c #2CC86D",
"j c #2CC86E",
"k c #2CC96E",
"l c #2CC96F",
"z c #2CCA6F",
"x c #2DCA6F",
"c c #2CCB6F",
"v c #2DCB6F",
"b c #2CCA70",
"n c #2DCA70",
"m c #2CCB70",
"M c #2DCB70",
"N c #2DCB71",
"B c #2ECB70",
"V c #2ECB71",
"C c #2DCC70",
"Z c #2DCD70",
"A c #2DCC71",
"S c #2DCD71",
"D c #2ECC70",
"F c #2ECC71",
"G c #2ECD71",
"H c #2DCE71",
"J c #2DCF71",
"K c #2DCF72",
"L c #2ED072",
"P c #2ED172",
"I c #2ED073",
"U c #2ED173",
"Y c #2ED273",
"T c #2FD273",
"R c #2FD373",
"E c #2FD374",
"W c #2FD474",
/* pixels */
"FMMmcmmmmMMmMmMFFFMMd293wmMFMMFMMcMMMMMF",
"FMmUYYYYHMMzlMMMMFMMMu22uMMMMFMMzzMzMMMM",
"FFxKEEETCMMj8euzMFFMMMt4zMMFFMMz9jMztyjz",
"MFMvUEEHnAMz91tzMFMFMMzuzMFMMMl02sMMe24j",
"MFFnSEUbMFMmeuMMMFMMCMMMMMFMml999ebMd2jM",
"BMFMxUHnFFMzzMbMFMFFFVMMMBBMz02799zMljMM",
"CMFMzMcMFMMMMMMMMMMMMFFFFAFMzkgt02jMMMzM",
"zMMFDMMMMMMvljulMMFMzllllllzMMMMzjlmMMMu",
">MMMMMMMMje0994lMMMMm:$%%$=zMMMMMMMMFMM:",
"o1Mczuyejz02p9emMMmmMro@@.wMxmzdyvFFMMl$",
"@o6MMy26lMz099dMMzLKzM:oO;MzMl01eMMFMMrO",
"OooeMMwrMMMl88zMbSEYMMj#+dMMMzf8eMMFMM:X",
">9skMMllMFMMjtcMMLUUSbC2>MMFMMMliMMFMl%&",
"MCMMMMmmMFMMMnMMMzbMMxMlkMMFFBMMMMMFMzjn",
"MMMMMzMmMFFBMMMFMMMMMMMMMMFMMFFMBBFFMAFC",
"VFFMMdtvMMMFFMFMMjzMVFFMMCMFMMMMMMMMFBMB",
"MMFMMa20jMMMBFMMz5uMMMMCzfzMMMMxklmMFMMM",
"FFFMMt792ezMMFMMy29lMzzr%:Mzkde03yMMMMMM",
"MMFMMs339elMMMMz999ebMy@ ,Mze1753kMMFFFV",
"MMbzMe20kmMMFMme2932uMMj%1MMz0790zMMMMMM",
"dezMzyixMMMFFMzyytuyumnMlgMMMl02dMMMbczj",
"3wMMxzMMMFFFFMzMMMMMcMFMMMMFMMl9kMMMu099",
"7jMMFMMMMMMMMFMMMMMmHMMMMMFMFMclzMMMk939",
"8zMMMMMMczlmMMBFFMzHECxzmMMFFMMMMFFMMl93",
"ecMMzljykM0elMMMMnCRELMluxMMMFAMFMMMMMk4",
"hMMMze24lM029ekzMMCGGSMj20jmMMBMMzmmMMmj",
"mMFMmz00cMe7928kMMMnnMMj996ylMMMMHUCMFMM",
"BMMMMMkdmMa32wkzMMFFFFMj9q22yMMMIWYMMFFM",
"MxMmMMMMMMt2yzMMMFFMCFMj22wjzMMxMIYMMFAF",
"zZUMMFMMMMjjMMMFFMMMMMCj0jmMMMFMMzCMMFBN",
"STEAMFFFMzmmMVFMFMzjzMMzzMzMFFMMMMxnMFMz",
"YEESMFMMMMMMMFFFMMk2kMMMMMMzMFMMmMMDFMmH",
"EEEJbFFFFFFMMMMMMz02eMMMMlejMFMMdlMMFMZY",
"HPEPxMMMMMMMCMzlxlteezmvd32jMMMl8eMMMMcM",
"nxCHMlzMMMlfw<*%lMMMMzMMly2jCMMu22gmMFMn",
"FMnzC9%2yM0oO@X:MMBMMMAMMMjkMMz9998lMMFV",
"MFFMCs..3MM>o#oyMMFFFMMMMbMMMMy2993ecMFM",
"VMMVMj#9MzMz-.%lMMMMMMMMmznFAzfufjjkzMFM",
"MFMFMzdMMMMMz%:MMMMzzkgywjMMMMMMMMMMMMFM",
"FMMFMMMzMFFMMjyMMMMk03977kMMFFFBVVVFFFMF"
};
