/* XPM */
static char *result[] = {
/* columns rows colors chars-per-pixel */
"40 40 55 1 ",
"  c #336501",
". c #3A6600",
"X c #336904",
"o c #326E09",
"O c #34730D",
"+ c #3C760B",
"@ c #327511",
"# c #347A15",
"$ c #3A7C12",
"% c #327D19",
"& c #426F00",
"* c #437607",
"= c #417E10",
"- c #31811E",
"; c #2F8726",
": c #2F8928",
"> c #328521",
", c #358A24",
"< c #3C8B22",
"1 c #318D2B",
"2 c #3F9327",
"3 c #3B942C",
"4 c #2F9737",
"5 c #2F9C3D",
"6 c #349532",
"7 c #329836",
"8 c #3A9C35",
"9 c #329C3A",
"0 c #2E9F40",
"q c #2EA547",
"w c #2CA54A",
"e c #2EA94C",
"r c #34A542",
"t c #38A640",
"y c #34B04E",
"u c #2BAD53",
"i c #2BAF58",
"p c #2FB355",
"a c #2DB65B",
"s c #2DB95D",
"d c #32B454",
"f c #32BB5B",
"g c #28B764",
"h c #2ABB65",
"j c #27BF6C",
"k c #2ABE69",
"l c #31BE60",
"z c #2DC166",
"x c #2BC46B",
"c c #2CCA6F",
"v c #30C365",
"b c #29C671",
"n c #2DCB70",
"m c #2ED274",
"M c #2DD479",
/* pixels */
"nnnnnccnnnncnnncnnnnczzxknnnnnnnnnnnnnnc",
"nncmmmmmmnncccncnnnnnnxxjnnnnnnnnnnnccnc",
"nnnnmmmmnnncxxccnnnnnnnkxnnnnnnnbzcnnxxc",
"nnnnmmmmxnnnxxkcnnnnnnncxnnnnnnnxkxnnxxx",
"nnncmmmcnnnncxcccnnnnnnncnnnnnckxxcnnxzx",
"nnnccmmcnnnnccnnnnnnnnnnnnnnncxzxxxnnnnn",
"nnnmcmccnncncncccnnnnnnnnnnnnnxxxzzcnbnn",
"nnnnccccnnnnnccccnnnnnnnnnnnnnnnccbccnnn",
"vnnncxnnnncxxxjxnnnncbkhhkkxnnnnnnnnnnnn",
"hxnnccxnxnxxxxxccnccnnkhhhgxnnnnxnnnnnnn",
"hhzcncxxcncxxxxnnnnmncxhhkknnnxxxxnnnnnx",
"ghhxccxkcnccxkcnncmmncnkghnnnnnxzxcnnnnk",
"kkkxnncccnnncxnncnmmmcnchznnnnncxcncnnnh",
"nnnnnnnccnnnxcnnnnnnnncnncnnnnnncnnnnnxx",
"nnnnnnnnnnnnnnnnnnnnnnnnccnnnnnnnnnmnnnn",
"nnnnnxnnnnnnnnnnnxnnnnnnncnnnnnnnnnnnnnn",
"nnnnnxxxncnv322fnxxnccnnnnnnnnnccccnnncn",
"nnnnnxxxxcnx$..<nzxnncnnckxncncccxcnnnnn",
"nnnnnxxxkxxm4  Xpxxxccckhgcncxxxkxcnnnnn",
"nnnnnnzxxccnho  7ckxcncckgxncckxxxcnnnnn",
"cnnnnxxxcncnn;  $zxxxnnncxxncccjkccnnnnn",
"zxxnnxcncnncm0  Xynnnbnnnnnncccxxcnccccc",
"xxnnnnnnnnnnngX  3nnnnnnncnnnnccccnnnxxz",
"xxnnnnnnnncnnn%  #znnncnnnnnncncccnncnxx",
"xnnnnnnnnnxccn4 XXdMmmnvfzccnnnnnnnnnccv",
"xnnnxxxxbnckbne X rMmMf=*=hnnnnnnnnncnnc",
"nnnnnxzxnnnzcxaXX ,ccm6 XOscnnnnnccnnncc",
"nnnnnnbzt8dxxxh@  Ovmv+  >bxznnnnmmmnnnn",
"nnnnnnnh*&$kxxb%   dMt X qbzxcnnnmmmnnnn",
"nnnnnncm;  rnxM1   rM,  ohxcnnncncnmnnnn",
"nnmnnnnme  ,nnM5 X 7cO  :ncnnnnnnnnnnnnn",
"mmmnnnnnho @vnnq X 1p   qnnnnnnnnnnnnnnn",
"mmmmcnncn-  ymni X %0 XXunnncnvyznnnnnnn",
"mmmmnnncm7  7mnlXX %, Xosncxnh=*-ncnnnnn",
"mmmmnnnnmeX ,nngX  oO  ohckkn8  6cvncnnn",
"ccccnnxnmpX @lkio.  .X #cnxxx@ Xunzcnnnn",
"nnnnnvhkxgo oikiXX     %cccndX ogxxxccnn",
"nnnnnnhgklo XujuX X X  %cncm9  @hxjxxcnn",
"nnnnnnhzmlo Xwjw  X  X %cccn,  @znccccnn",
"nnnnncccnsX Xujw X X   @zcbx+  Oznnnnncn"
};
