/* XPM */
static char *result[] = {
/* columns rows colors chars-per-pixel */
"40 40 100 2 ",
"   c #010101",
".  c #070807",
"X  c #0B0B0B",
"o  c #100F0F",
"O  c #0F100F",
"+  c #111A07",
"@  c #10100F",
"#  c #0D1010",
"$  c #131413",
"%  c #171817",
"&  c #1C1D1C",
"*  c #223010",
"=  c #1F2120",
"-  c #212222",
";  c #272827",
":  c #292528",
">  c #2C2C2C",
",  c #323333",
"<  c #373837",
"1  c #373B3B",
"2  c #393A3A",
"3  c #314C14",
"4  c #3A5519",
"5  c #3E5B1A",
"6  c #3D6424",
"7  c #40621E",
"8  c #46701F",
"9  c #4E7818",
"0  c #485C37",
"q  c #406625",
"w  c #446B26",
"e  c #4C7326",
"r  c #4D7428",
"t  c #527B23",
"y  c #537B28",
"u  c #587E2A",
"i  c #444544",
"p  c #4A4B4B",
"a  c #54594C",
"s  c #525353",
"d  c #5B5B5B",
"f  c #5D6E50",
"g  c #7C6848",
"h  c #657A58",
"j  c #616262",
"k  c #6C6C6B",
"l  c #736E65",
"z  c #6F706F",
"x  c gray44",
"c  c #7D7D7D",
"v  c #5C832A",
"b  c #61882A",
"n  c #628442",
"m  c #6F825A",
"M  c #8B837C",
"N  c #838484",
"B  c #8C8C8C",
"V  c #918A86",
"C  c #998989",
"Z  c #9A928C",
"A  c #949494",
"S  c #959398",
"D  c #9B9C9B",
"F  c #A08383",
"G  c #9AAC82",
"H  c #97A88B",
"J  c #A1AE89",
"K  c #A8B696",
"L  c #A9B49C",
"P  c #AEB99C",
"I  c #A3A3A3",
"U  c #A7A8A8",
"Y  c #ACACAC",
"T  c #B6B3AE",
"R  c #B4B5B5",
"E  c #BCBCBC",
"W  c #C89794",
"Q  c #D79F9F",
"!  c #C7B69B",
"~  c #CCA6A3",
"^  c #C1BEBD",
"/  c #CEB9B8",
"(  c #E6A3A3",
")  c #BAC5B4",
"_  c #C2C3BC",
"`  c #C7D3BE",
"'  c #C6C5C5",
"]  c #C8CFC0",
"[  c #CBCCCB",
"{  c #D4D4D4",
"}  c #DBDBDB",
"|  c #E0DFDF",
" . c #E9DDDD",
".. c #DFE0DD",
"X. c #E4E3E3",
"o. c #EBEBEB",
"O. c #F0EFF0",
"+. c #F4F4F4",
"@. c #FBFBFB",
"#. c None",
/* pixels */
"#.#.#.#.#.#.#.#.#.#.#.#.#.#.#.#.#.#.#.#.#.#.#.#.#.#.#.#.#.#.#.#.#.#.#.#.#.#.#.#.",
"#.#.#.#.#.#.#.#.#.#.#.#.#.#.#.#.#.#.#.#.#.#.#.#.#.#.#.#.#.#.#.#.#.#.#.#.#.#.#.#.",
"#.#.#.#.#.#.#.#.#.#.#.#.#.#.#.#.#.#.#.#.#.#.#.#.#.#.#.#.#.#.#.#.#.#.#.#.#.#.#.#.",
"#.#.#.#.#.#.#.#.#.#.#.#.#.#.#.#.#.#.#.#.#.#.#.#.#.#.#.#.#.#.#.#.#.#.#.#.#.#.#.#.",
"#.#.#.#.#.#.#.#.#.#.#.#.#.#.#.#.#.#.#.#.#.#.#.#.#.#.#.#.#.#.#.#.#.#.#.#.#.#.#.#.",
"#.#.#.#.#.#.#.#.#.#.#.#.#.#.#.#.#.#.#.#.#.#.#.#.#.#.#.#.#.#.#.#.#.#.#.#.#.#.#.#.",
"#.#.#.#.#.#.#.#.#.#.#.#.#.#.#.#.#.#.#.#.#.#.#.#.#.#.#.#.#.#.#.#.#.#.#.#.#.#.#.#.",
"#.#.#.#.#.#.#.#.#.#.#.#.#.#.#.#.#.#.#.#.#.#.#.#.#.#.#.#.#.#.#.#.#.#.#.#.#.#.#.#.",
"#.#.#.#.#.#.#.#.#.#.#.#.#.#.#.#.#.#.#.#.#.#.#.#.#.#.#.#.#.#.#.#.#.#.#.#.#.#.#.#.",
"#.#.#.#.#.! { { #.#.#.#.#.#.#.#.#.#.#.#.#.#.#.#.#.#.#.#.#.#.#.#.#.#.#.#.#.#.#.#.",
"#.#.o X #.T } ' l g #.#.#.#.#.#.#.#.#.#.#.#.#.#.#.#.#.#.#.#.#.#.#.#.#.#.#.#.#.#.",
"#.#.    = R ' i X X     #.#.#.#.#.#.#.#.#.#.#.#.#.#.#.#.#.#.#.#.#.#.#.#.#.#.#.#.",
"#.#.#.#.- R c   : $     #.#.#.#.#.#.#.#.#.#.#.#.#.#.#.#.#.#.#.#.#.#.#.#.#.#.#.#.",
"#.#.#.#.1 E d . o > } +.o.U ' o.o.+.#.#.#.#.#.#.#.#.#.#.#.#.#.#.#.#.#.#.#.#.#.#.",
"#.#.#.#.C  .k . X i o.o.S $ ; E X.[ +.U , i i < > - & D +.o.o.o.#.#.#.#.#.#.#.#.",
"#.#.#.#.Q ( C o   c +.{ = @ $ , p - U { - . X $ % X i o.} X.o.X.o.o.#.#.#.#.#.#.",
"#.#.#.#.~ W / s d } o.X.c & $ $ $   c @.[ R k % & X z R 1 I +.o.o.X.#.#.#.#.#.#.",
"#.#.#.#.#.#.#.#.o.o.o.o.+.U % $ $ p } o.o.+...>   & Y k # j o.o.o.} { #.#.#.#.#.",
"#.#.#.#.#.#.#.#.#.X.o.X.o.o.< < E o.X.X.o.o.+.' D [ +.N - 1 } O.X.} { #.#.#.#.#.",
"#.#.#.#.#.#.#.#.#.} X.o.o.} & k @.' < p X.X.Y N c R O.' 1 > [ O.X.} #.#.#.#.#.#.",
"#.#.#.#.#.#.#.#.#.#.X.o.o.} < I ' > X $ E D - = & > E } 2 > } O.} #.#.#.#.#.#.#.",
"#.#.#.#.#.#.#.#.#.#...o.o.X.} Y - $ & @ Y A - , > - R R - p X.o.} #.#.#.#.#.#.#.",
"#.#.#.#.#.#.#.#.#.#.| X.X.o.+.E = $ & X B [ , & 1 A +.U & B @.X.{ #.#.#.#.#.#.#.",
"#.#.#.#.#.#.#.#.#.#.#.| } X.X.+.R ; X . A +.R I { o.o.{ 1 I ..| { #.#., #.#.#.#.",
"#.#.#.#.#.#.#.#.#.#.#.#.X...| } o.^ s z X.X.o.o.o.X.#.#.#.#.V { } #.#.#.- - #.#.",
"#.#.#.#.#.#.#.#.#.#.#.#.{ { o.X.#.#.#.#.#.#.#.#.#.#.#.#.#.#.M _ } #.#.#.#.#.#.#.",
"#.#.#.#.#.#.#.#.#.#.#.#.{ [ #.X.#.#.#.#.#.#.#.#.#.#.#.#.#.#.V ^ } #.#.#.#.#.#.#.",
"#.#.#.#.#.#.#.#.#.#.#.#.{ [ #.X.#.#.#.#.#.#.#.#.#.#.#.#.#.#.C ^ } #.#.#.#.#.#.#.",
"#.#.#.#.#.#.#.#.#.#.#.#.{ #.#.X.#.#.#.#.#.#.#.#.#.#.#.#.#.#.M ' #.#.#.#.#.#.#.#.",
"#.#.#.#.#.#.#.#.#.#.#.#.{ [ #...#.#.#.#.#.#.#.#.#.#.#.#.#.> : X.#.#.#.#.#.#.#.#.",
"#.#.#.#.#.#.#.#.#.v v t _ K G ] y y y y y y y y y u u u u y 9 J P #.#.#.#.#.#.#.",
"#.#.#.#.#.b v v u y e n { H ` ) 6 q 6 q 6 q 6 6 q 6 w w w e e G K t v b b #.#.#.",
"#.#.#.#.#.v v u y r w 0 s f A h 6 6 6 6 6 6 6 6 6 6 6 w w w 6 a m t u v b #.#.#.",
"#.#.#.#.#.#.#.#.v v v 4 3 3 + 7 y r e e e w e r e e y r y u r * 5 #.#.#.#.#.#.#.",
"#.#.#.#.#.#.#.#.#.#.#.#.#.#.#.#.#.#.#.#.#.#.#.#.#.#.#.#.#.#.#.#.#.#.#.#.#.#.#.#.",
"#.#.#.#.#.#.#.#.#.#.#.#.#.#.#.#.#.#.#.#.#.#.#.#.#.#.#.#.#.#.#.#.#.#.#.#.#.#.#.#.",
"#.#.#.#.#.#.#.#.#.#.#.#.#.#.#.#.#.#.#.#.#.#.#.#.#.#.#.#.#.#.#.#.#.#.#.#.#.#.#.#.",
"#.#.#.#.#.#.#.#.#.#.#.#.#.#.#.#.#.#.#.#.#.#.#.#.#.#.#.#.#.#.#.#.#.#.#.#.#.#.#.#.",
"#.#.#.#.#.#.#.#.#.#.#.#.#.#.#.#.#.#.#.#.#.#.#.#.#.#.#.#.#.#.#.#.#.#.#.#.#.#.#.#.",
"#.#.#.#.#.#.#.#.#.#.#.#.#.#.#.#.#.#.#.#.#.#.#.#.#.#.#.#.#.#.#.#.#.#.#.#.#.#.#.#."
};
