/* XPM */
static char *result[] = {
/* columns rows colors chars-per-pixel */
"40 40 256 2 ",
"   c #121822",
".  c #131822",
"X  c #131922",
"o  c #131923",
"O  c #141922",
"+  c #141923",
"@  c #141A23",
"#  c #151A23",
"$  c #161A23",
"%  c #171A23",
"&  c #161B23",
"*  c #171B23",
"=  c #181B23",
"-  c #181C23",
";  c #191C23",
":  c #1A1C23",
">  c #1A1D23",
",  c #1E1F23",
"<  c #181C24",
"1  c #191C24",
"2  c #1A1D24",
"3  c #1C1E24",
"4  c #1D1E24",
"5  c #1D1F24",
"6  c #1F1F24",
"7  c #1F2024",
"8  c #202024",
"9  c #212024",
"0  c #202124",
"q  c #212124",
"w  c #202025",
"e  c #202125",
"r  c #212125",
"t  c #222124",
"y  c #232124",
"u  c #222125",
"i  c #232224",
"p  c #222225",
"a  c #232225",
"s  c #242224",
"d  c #252324",
"f  c #242225",
"g  c #2E2825",
"h  c #2F2825",
"j  c #342B25",
"k  c #372C25",
"l  c #382D26",
"z  c #392E26",
"x  c #3E3026",
"c  c #3F3126",
"v  c #403127",
"b  c #403226",
"n  c #413226",
"m  c #423327",
"M  c #443327",
"N  c #443427",
"B  c #453527",
"V  c #463527",
"C  c #473527",
"Z  c #473627",
"A  c #493727",
"S  c #4A3727",
"D  c #4B3827",
"F  c #4C3827",
"G  c #4B3828",
"H  c #4F3A28",
"J  c #513B28",
"K  c #523B28",
"L  c #553E28",
"P  c #593F28",
"I  c #583F29",
"U  c #5A4029",
"Y  c #5E4229",
"T  c #5F4329",
"R  c #604429",
"E  c #634529",
"W  c #65462A",
"Q  c #66472A",
"!  c #67482A",
"~  c #68482A",
"^  c #6A492A",
"/  c #704C2B",
"(  c #744F2B",
")  c #7D542C",
"_  c #9D5913",
"`  c #9C5914",
"'  c #9E5915",
"]  c #9F5A14",
"[  c #9F5B15",
"{  c #A15B15",
"}  c #A15C14",
"|  c #A15D14",
" . c #A25C14",
".. c #A35D15",
"X. c #A35E15",
"o. c #A35D16",
"O. c #A45D15",
"+. c #A55E15",
"@. c #A55F15",
"#. c #A55E16",
"$. c #A65F16",
"%. c #A65F17",
"&. c #A75F17",
"*. c #A66016",
"=. c #A76016",
"-. c #A76017",
";. c #A86117",
":. c #A96117",
">. c #A86118",
",. c #A96118",
"<. c #AA6118",
"1. c #AA6218",
"2. c #AB6218",
"3. c #AA6318",
"4. c #AA6219",
"5. c #AB6219",
"6. c #AB6319",
"7. c #AC6419",
"8. c #AD6419",
"9. c #AD641A",
"0. c #AD651A",
"q. c #AF651B",
"w. c #B0661A",
"e. c #B3681C",
"r. c #B3691C",
"t. c #B2681D",
"y. c #B3681D",
"u. c #B3691D",
"i. c #B4691E",
"p. c #B56A1E",
"a. c #B66B1E",
"s. c #81562C",
"d. c #82562C",
"f. c #82572D",
"g. c #83572D",
"h. c #895B2D",
"j. c #925F2E",
"k. c #93602E",
"l. c #96612F",
"z. c #97622F",
"x. c #9E662F",
"c. c #9F6630",
"v. c #B56B20",
"b. c #B66C20",
"n. c #B76C20",
"m. c #B76C21",
"M. c #B76D21",
"N. c #B86C20",
"B. c #B86D20",
"V. c #B86D21",
"C. c #B96D21",
"Z. c #B96E22",
"A. c #B96F22",
"S. c #B96F23",
"D. c #BA6E22",
"F. c #BA6F23",
"G. c #BB7023",
"H. c #BC7023",
"J. c #BC7024",
"K. c #BD7124",
"L. c #BD7125",
"P. c #BD7225",
"I. c #BE7226",
"U. c #BE7326",
"Y. c #BF7327",
"T. c #BF7427",
"R. c #A06730",
"E. c #A16830",
"W. c #A76B30",
"Q. c #AA6D31",
"!. c #AF7032",
"~. c #B27232",
"^. c #B57331",
"/. c #B57332",
"(. c #BF7933",
"). c #BE7934",
"_. c #BF7A34",
"`. c #C07428",
"'. c #C07528",
"]. c #C37729",
"[. c #C3772A",
"{. c #C4772A",
"}. c #C4782A",
"|. c #C5782A",
" X c #C5792B",
".X c #C6792B",
"XX c #C77A2B",
"oX c #C5792C",
"OX c #C6792C",
"+X c #C67A2C",
"@X c #C67A2D",
"#X c #C77A2D",
"$X c #C97B2D",
"%X c #CA7C2D",
"&X c #CB7C2D",
"*X c #C97C2E",
"=X c #C97C2F",
"-X c #CB7D2E",
";X c #CA7D2F",
":X c #CC7D2E",
">X c #CD7E2F",
",X c #CD7F2F",
"<X c #C67C33",
"1X c #C37C34",
"2X c #C57D35",
"3X c #C67E35",
"4X c #C77E35",
"5X c #CB7E30",
"6X c #CC7F30",
"7X c #CC7E31",
"8X c #CA7F34",
"9X c #CD8032",
"0X c #CE8032",
"qX c #CD8134",
"wX c #CF8236",
"eX c #D48433",
"rX c #D58433",
"tX c #D58533",
"yX c #D08234",
"uX c #D18334",
"iX c #D08235",
"pX c #D08335",
"aX c #D18335",
"sX c #D28334",
"dX c #D28434",
"fX c #D28435",
"gX c #D38435",
"hX c #D18436",
"jX c #D28436",
"kX c #D38536",
"lX c #D58635",
"zX c #D68634",
"xX c #D48536",
"cX c #D58636",
"vX c #D58637",
"bX c #D68636",
"nX c #D68736",
"mX c #D78736",
"MX c #D68637",
"NX c #D68737",
"BX c #D78737",
"VX c #D88736",
"CX c #D98736",
"ZX c #D88737",
"AX c #D88837",
"SX c #D98837",
"DX c #DB8836",
"FX c #DB8936",
"GX c #DA8837",
"HX c #DA8937",
"JX c #DB8937",
"KX c #DB8A37",
"LX c #DC8937",
"PX c #DC8A37",
"IX c #DD8A37",
"UX c None",
/* pixels */
"UXUXUXUXUXUXUXUXUXUXUXUXUXUXUXUXUXUXUXUXUXUXUXUXUXUXUXUXUXUXUXUXUXUXUXUXUXUXUXUX",
"UXUXUXUXUXUXUXUXUXUXUXUXUXUXUXUXUXUXUXUXUXUXUXUXUXUXUXUXUXUXUXUXUXUXUXUXUXUXUXUX",
"UXUXUXUXUXUXUXUXUXUXUXUXUXUXUXUXUXUXUXUXUXUXUXUXUXUXUXUXUXUXUXUXUXUXUXUXUXUXUXUX",
"UXUXUXUXUXUXUXUXUXUXUXUXUXUXUXUXUXUXUXUXUXUXUXUXUXUXUXUXUXUXUXUXUXUXUXUXUXUXUXUX",
"UXUXUXUXUXUXUXUXUXUXUXUXUXUXUXUXUX#.1.4.4.,.o.UXUXUXUXUXUXUXUXUXUXUXUXUXUXUXUXUX",
"UXUXUXUXUXUXUXUXUXUXUXUXUX_ 0.m.Y..X%X-X-X%X|.I.v.6.UXUXUXUXUXUXUXUXUXUXUXUXUXUX",
"UXUXUXUXUXUXUXUXUXUXUXUXw.J.6XLXPXhX3X1X1X4XkXIXDX*XA.9.UXUXUXUXUXUXUXUXUXUXUXUX",
"UXUXUXUXUXUXUXUXUXUX@.Z.7XIXfXz.R V l j j z A ! E.bXKX=Xn. .UXUXUXUXUXUXUXUXUXUX",
"UXUXUXUXUXUXUXUXUX2.U.nXxXj.b * # 1 3 3 3 3 1 + ; G c.ZXdXH.=.UXUXUXUXUXUXUXUXUX",
"UXUXUXUXUXUXUXUX:.`.SX<XL * ; t a u u u u u p a q = > ! iXcXK.O.UXUXUXUXUXUXUXUX",
"UXUXUXUXUXUXUXX.P.AX(.v O t p r q 8 8 9 9 8 8 0 r a q . K qXlXF.' UXUXUXUXUXUXUX",
"UXUXUXUXUXUXUXC.cX8XB # f r 8 8 8 8 r 8 8 r 8 8 8 8 r f . U gXyXp.UXUXUXUXUXUXUX",
"UXUXUXUXUXUXq.5XbXU O f e 8 q r 8 r r r r r r 8 r 8 w r y o ( JXoX3.UXUXUXUXUXUX",
"UXUXUXUXUX` J.IXk.= t r 8 r r 8 r r r r r r r r 8 r 8 w r 8 8 Q.HXZ.UXUXUXUXUXUX",
"UXUXUXUXUX0.6XfXn : p 8 r 8 r r r r r r r r r r r 8 r 9 8 a $ H mX#X>.UXUXUXUXUX",
"UXUXUXUXUXM.IXl.* t r 8 r 8 r r r r r r r r r r r r 8 r 8 r 8 t !.tXu.UXUXUXUXUX",
"UXUXUXUXUXT.PXT # a q 8 8 r r r r r r r r r r r r r r 8 8 r p = f.PXZ.UXUXUXUXUX",
"UXUXUXUX%.XXwXN 2 u 8 8 r r r r r r r r r r r r r r r r 8 9 a $ Y JXY.] UXUXUXUX",
"UXUXUXUX5.:X1Xj 3 u 8 r r r r r r r r r r r r r r r r r r 8 p < Z BX}.#.UXUXUXUX",
"UXUXUXUX8.,X).g 5 r 8 8 r r r r r r r r r r r r r r r r 8 8 u 1 x vX+X-.UXUXUXUX",
"UXUXUXUX8.>X_.h 4 r 8 8 r r r r r r r r r r r r r r r r 8 8 u ; c MXOX=.UXUXUXUX",
"UXUXUXUX1.&X2Xk 3 u 8 r r r r r r r r r r r r r r r r r r 8 p = D ZX]...UXUXUXUX",
"UXUXUXUX#..XjXC 1 u r 8 r r r r r r r r r r r r r r r 8 8 q a $ E JXU._ UXUXUXUX",
"UXUXUXUXUXU.PXQ @ a 8 r 8 r r r r r r r r r r r r r r r 9 r u ; h.FXV.UXUXUXUXUX",
"UXUXUXUXUXb.FXR.- t r 8 r 8 r r r r r r r r r r r r 8 r q r 7 d /.eXt.UXUXUXUXUX",
"UXUXUXUXUX7.;XcXS = a 8 9 r 8 r r r r r r r r r r 8 r 8 w a + U GXOX&.UXUXUXUXUX",
"UXUXUXUXUXUXF.PXx.> q r w 8 r 8 r r r r r r r r 8 r 8 w u 6 d /.CXm.UXUXUXUXUXUX",
"UXUXUXUXUXUX8.=XZX~ . f r w 9 r 8 r r r r r 8 r r 8 8 r t X s.PX[.;.UXUXUXUXUXUX",
"UXUXUXUXUXUXUXn.dXpXJ X i r 8 9 r 8 r 8 8 r 8 9 q w u t O W mX0Xr.UXUXUXUXUXUXUX",
"UXUXUXUXUXUXUX{ G.vXqXI   q a r q 8 8 8 8 8 9 r r a 7 O ^ cXsXB.UXUXUXUXUXUXUXUX",
"UXUXUXUXUXUXUXUX=.L.bXaX/ , % 8 p a p u u p a p 8 # d d.VXsXD.| UXUXUXUXUXUXUXUX",
"UXUXUXUXUXUXUXUXUX+.F.uXJXW.F 9 * & 1 1 1 ; $ = s I ^.LX9XN.} UXUXUXUXUXUXUXUXUX",
"UXUXUXUXUXUXUXUXUXUX[ a.@XJXcXQ.) P m x x M Y g.~.SXCX{.e.UXUXUXUXUXUXUXUXUXUXUX",
"UXUXUXUXUXUXUXUXUXUXUXUX2.S.$XzXLXGXMXMXMXNXHXJXrXOXm.:.UXUXUXUXUXUXUXUXUXUXUXUX",
"UXUXUXUXUXUXUXUXUXUXUXUXUXUX<.i.F.'.oX+X@X XT.Z.y.-.UXUXUXUXUXUXUXUXUXUXUXUXUXUX",
"UXUXUXUXUXUXUXUXUXUXUXUXUXUXUXUXUX{ *.-.-.$.] UXUXUXUXUXUXUXUXUXUXUXUXUXUXUXUXUX",
"UXUXUXUXUXUXUXUXUXUXUXUXUXUXUXUXUXUXUXUXUXUXUXUXUXUXUXUXUXUXUXUXUXUXUXUXUXUXUXUX",
"UXUXUXUXUXUXUXUXUXUXUXUXUXUXUXUXUXUXUXUXUXUXUXUXUXUXUXUXUXUXUXUXUXUXUXUXUXUXUXUX",
"UXUXUXUXUXUXUXUXUXUXUXUXUXUXUXUXUXUXUXUXUXUXUXUXUXUXUXUXUXUXUXUXUXUXUXUXUXUXUXUX",
"UXUXUXUXUXUXUXUXUXUXUXUXUXUXUXUXUXUXUXUXUXUXUXUXUXUXUXUXUXUXUXUXUXUXUXUXUXUXUXUX"
};
