/* XPM */
static char *result[] = {
/* columns rows colors chars-per-pixel */
"40 40 96 2 ",
"   c #364741",
".  c #3B4944",
"X  c #404B47",
"o  c #434D49",
"O  c #42504B",
"+  c #4B504E",
"@  c #425750",
"#  c #475B54",
"$  c #495D56",
"%  c #4F5E59",
"&  c gray33",
"*  c #595657",
"=  c #4B6059",
"-  c #695E61",
";  c #736267",
":  c #76646A",
">  c #80686F",
",  c #846B73",
"<  c #8B6D76",
"1  c #8D6F78",
"2  c #916F7A",
"3  c #817377",
"4  c #8B767C",
"5  c #94717C",
"6  c #9A7D86",
"7  c #A67987",
"8  c #A77A88",
"9  c #AC7C8B",
"0  c #B97F91",
"q  c #87908D",
"w  c gray62",
"e  c #BC8495",
"r  c #A7979C",
"t  c #BE95A2",
"y  c #B3A5A9",
"u  c #C4869A",
"i  c #C38A9D",
"p  c #CC889E",
"a  c #D4849D",
"s  c #CB8EA1",
"d  c #D586A0",
"f  c #D987A2",
"g  c #D58BA2",
"h  c #DB8DA6",
"j  c #DD8FA8",
"k  c #CF91A5",
"l  c #DE90A9",
"z  c #E08DA7",
"x  c #E28EA9",
"c  c #E392AC",
"v  c #E894AF",
"b  c #EB96B1",
"n  c #E59BB3",
"m  c #EE9AB5",
"M  c #EF9FB8",
"N  c #F197B4",
"B  c #F09BB6",
"V  c #F49DB9",
"C  c #F89FBB",
"Z  c #D5A0B1",
"A  c #C8B5BC",
"S  c #E3A2B7",
"D  c #E3A6BA",
"F  c #EBA4BB",
"G  c #EBA8BD",
"H  c #F3A4BD",
"J  c #FBA0BD",
"K  c #F1A8BF",
"L  c #D9BFC8",
"P  c #EFABC1",
"I  c #F5A7C0",
"U  c #F4ACC3",
"Y  c #FEADC6",
"T  c #F3B1C6",
"R  c #F4B6C9",
"E  c #FFB1CB",
"W  c #F4BACC",
"Q  c #F6BFD1",
"!  c #DCC5CC",
"~  c #DFCBD1",
"^  c #E3CED5",
"/  c #F6C5D5",
"(  c #F7CCDA",
")  c #F9CDDA",
"_  c #E5D5DA",
"`  c #E8D6DB",
"'  c #F9D1DE",
"]  c #FAD5E1",
"[  c #F9DBE4",
"{  c #FFDEE9",
"}  c #F7E5EB",
"|  c #FAE2E9",
" . c #FBEFF3",
".. c #FBF5F7",
"X. c #FEFEFE",
"o. c None",
/* pixels */
"o.o.o.o.o.o.o.o.o.o.o.o.o.o.o.o.o.o.o.o.o.o.o.o.o.o.o.o.o.o.o.o.o.o.o.o.o.o.o.o.",
"o.o.o.o.o.o.o.o.o.o.o.o.o.o.o.o.o.X.X.X.X.X.o.o.o.o.o.o.o.o.o.o.o.o.o.o.o.o.o.o.",
"o.o.o.o.o.o.o.o.o.o.o.o.o.o.o.X.X.X.X.X.X.X.X.X.X.o.o.o.o.o.o.o.o.o.o.o.o.o.o.o.",
"o.o.o.o.o.o.o.o.o.o.o.o.o.o.X.X.X.o.o.o.o.o.o.X.X.X.o.o.o.o.o.o.o.o.o.o.o.o.o.o.",
"o.o.o.o.o.o.o.o.o.o.o.o.o.X.X.o.o.o.o.o.o.o.o.o.o.X.X.o.o.o.o.o.o.o.o.o.o.o.o.o.",
"o.o.o.o.o.o.o.o.o.o.o.o.X.X.o.o.o.o.o.o.o.o.o.o.o.o.X.X.o.o.o.o.o.o.o.o.o.o.o.o.",
"o.o.o.o.o.o.o.o.o.o.o.X.X.o.o.o.o.o.o.o.o.o.o.o.o.o.o.X.X.o.o.o.o.o.o.o.o.o.o.o.",
"o.o.o.o.o.o.o.o.o.o.o.X.o.o.o.o.o.o.] ( ' ' o.o.o.o.o.X.X.o.o.o.o.o.o.o.o.o.o.o.",
"o.o.o.o.o.o.o.o.o.o.X.X.o.o.o.o.) / W R W W / ( o.o.o.o.X.X.o.o.o.o.o.o.o.o.o.o.",
"o.o.o.o.o.o.o.o.o.o.X.X.o.o.o.( R W W R R R R R / o.o.o.X.X.o.o.o.o.o.o.o.o.o.o.",
"o.o.o.o.o.o.o.o.o.o.X.X.o.o.( W R W R ) ' W T W R / o.o.X.X.o.o.o.o.o.o.o.o.o.o.",
"o.o.o.o.o.o.o.o.o.o.X.X.o.o.W W W R | ` ^ } / R R W [ o.X.X.o.o.o.o.o.o.o.o.o.o.",
"o.o.o.o.o.o.o.o.o.o.X.X.o.( R W R ) ` e 0 ! [ T W R / o.X.X.o.o.o.o.o.o.o.o.o.o.",
"o.o.o.o.o.o.o.o.o.o.X.X.o.Q R R T ' ^ e 0 ! [ T W W W o.X.X.o.o.o.o.o.o.o.o.o.o.",
"o.o.o.o.o.o.o.o.o.o.X.X.o.T T T T T | ` ~ } W T T T U o.X.o.o.o.o.o.o.o.o.o.o.o.",
"o.o.o.o.o.o.o.o.o.o.o.X.X.U U T P U T ' ] W P P T U U X.X.o.o.o.o.o.o.o.o.o.o.o.",
"o.o.o.o.o.o.o.o.o.o.o.X.X.( P U T P U U U P P T T K ] X.o.o.o.o.o.o.o.o.o.o.o.o.",
"o.o.o.o.o.o.o.o.o.o.o.o.X.X.( U D G k D G k S D G ' X.X.o.o.o.o.o.o.o.o.o.o.o.o.",
"o.o.o.o.o.o.o.o.o.o.o.o.o. .X.w @ t F p p n Z % q X.| o.o.o.o.o.o.o.o.o.o.o.o.o.",
"o.o.o.o.o.o.o.o.o.o.E Y M M ] y : A { ( ( { ~ , r ) m H Y E o.o.o.o.o.o.o.o.o.o.",
"o.o.o.o.o.o.o.o.K I s 1 ; l B B C U ..X.X.X.W V C b V 1 , u H K o.o.o.o.o.o.o.o.",
"o.o.U U U o.I B C 9 X   + c B m m b H K G H b m b m C -     2 V B K o.U I U o.o.",
"o.o.U U U I B m C 8   + o 5 C C C C m V V m m C C C 9 o +   , C B B I U U U U o.",
"o.I Y U U B B B B b < o . . ; e s 6 3 u p 4 4 s u , o . . : c B B B B U Y U U o.",
"o.U U I H B B B B B B u , * . . X # = % = = $ O .   & > e B B B B B m H U I U o.",
"o.o.K B B B B B B B B C J v u 9 5 < 4 4 6 4 , 2 7 u c C J m B B B B B m H H o.o.",
"o.v b m B B B B B m B m m B C C C C C V B B C C C C B B m B B B B B B m B m v o.",
"o.j l v b m B B B B B B M m B m m m M m m m m m B B B B B B B B B m m v v j j o.",
"o.j j j j j l c v v b b m m m m m M B m M m m M m m m m m b b v c l l j j j j o.",
"o.o.j j j j j j j j j j j j c c c c c c c l c c c l l l j j h h j j j j j j j o.",
"o.o.o.j j j j j j j j j j j j j j j j j h l l h l l h l l l l l l l l j j o.o.o.",
"o.o.o.o.o.a g j j l l l l j l l l l j j l l l l l l l l l l l h j f d o.o.o.o.o.",
"o.o.o.o.o.x f a a a a f f j j j j j l j j j j j j j j f g a a a a f c o.o.o.o.o.",
"o.o.o.o.o.B B m v x z h f o.o.a a a a a a a a a a o.o.f x x v v m B B o.o.o.o.o.",
"o.o.o.o.o.o.B B B B B B o.o.o.m b v v v c v v b o.o.o.o.B B B B B B o.o.o.o.o.o.",
"o.o.o.o.o.o.o.o.m B m o.o.o.o.B B B B B B B B B B o.o.o.o.B m m o.o.o.o.o.o.o.o.",
"o.o.o.o.o.o.o.o.o.o.o.o.o.o.o.o.B B B B B B B B o.o.o.o.o.o.o.o.o.o.o.o.o.o.o.o.",
"o.o.o.o.o.o.o.o.o.o.o.o.o.o.o.o.m B B B B B m B o.o.o.o.o.o.o.o.o.o.o.o.o.o.o.o.",
"o.o.o.o.o.o.o.o.o.o.o.o.o.o.o.o.o.B B B B B B m o.o.o.o.o.o.o.o.o.o.o.o.o.o.o.o.",
"o.o.o.o.o.o.o.o.o.o.o.o.o.o.o.o.o.o.o.o.o.o.o.o.o.o.o.o.o.o.o.o.o.o.o.o.o.o.o.o."
};
